<?xml version="1.0" encoding="UTF-8" standalone="no"?>
<!DOCTYPE svg PUBLIC "-//W3C//DTD SVG 20010904//EN"
 "http://www.w3.org/TR/2001/REC-SVG-20010904/DTD/svg10.dtd">
<svg version="1.0" xmlns="http://www.w3.org/2000/svg"
 width="1440.000000pt" height="1440.000000pt" viewBox="0 0 1440.000000 1440.000000"
 preserveAspectRatio="xMidYMid meet">

<g transform="translate(0.000000,1440.000000) scale(0.100000,-0.100000)"
fill="#000000" stroke="none">
<path d="M7015 14394 c-1513 -45 -2939 -542 -4140 -1444 -1471 -1105 -2460
-2731 -2770 -4553 -70 -411 -98 -754 -98 -1197 0 -443 28 -786 98 -1197 406
-2391 1975 -4407 4190 -5386 991 -437 2072 -646 3150 -607 285 10 411 21 680
55 2585 332 4797 2050 5760 4474 499 1258 635 2616 394 3949 -383 2124 -1716
3975 -3614 5019 -909 500 -1956 806 -2985 872 -178 11 -519 19 -665 15z
m-1013 -3894 c27 -52 79 -158 115 -235 36 -77 66 -141 67 -142 1 -1 69 6 151
17 231 29 369 40 633 50 394 14 933 -14 1239 -65 31 -6 33 -4 54 47 13 29 65
137 117 241 66 131 98 187 110 187 36 0 415 -81 582 -124 410 -105 872 -265
1186 -411 l90 -42 116 -179 c737 -1145 1125 -2272 1230 -3574 24 -304 15 -954
-19 -1288 l-6 -63 -153 -107 c-521 -362 -1070 -651 -1650 -870 -233 -88 -474
-166 -483 -156 -26 29 -175 248 -244 359 -112 181 -240 416 -230 425 4 3 62
28 128 55 197 79 509 233 608 300 16 11 8 20 -71 83 l-89 70 -89 -40 c-876
-390 -1849 -541 -2779 -432 -548 64 -1124 222 -1625 447 l-54 24 -92 -71 -92
-70 76 -44 c172 -98 524 -263 675 -316 17 -5 14 -13 -24 -83 -137 -252 -350
-592 -426 -681 l-28 -32 -115 36 c-511 161 -1075 418 -1575 717 -166 100 -555
358 -576 383 -25 31 -41 321 -43 769 -1 441 5 556 45 905 131 1135 547 2250
1226 3290 53 80 97 146 98 148 9 10 357 155 510 212 391 147 841 270 1270 349
82 15 83 14 137 -89z"/>
<path d="M5570 7735 c-151 -30 -283 -104 -400 -225 -317 -325 -344 -870 -62
-1239 97 -127 225 -220 379 -274 83 -30 96 -32 233 -32 137 0 150 2 232 31
113 40 218 107 302 190 113 114 179 228 233 403 25 80 27 99 27 271 0 173 -2
191 -27 273 -98 318 -328 541 -619 601 -91 19 -207 19 -298 1z"/>
<path d="M8554 7735 c-137 -30 -261 -95 -367 -195 -123 -115 -211 -265 -259
-440 -19 -72 -23 -109 -23 -245 0 -136 4 -173 23 -245 74 -270 242 -478 474
-584 276 -127 593 -72 820 142 200 189 301 453 285 746 -14 248 -94 433 -262
601 -123 123 -238 188 -393 220 -83 18 -217 18 -298 0z"/>
</g>
</svg>
