<svg width="217" height="37" viewBox="0 0 217 37" fill="none" xmlns="http://www.w3.org/2000/svg">
<g clip-path="url(#clip0_31649_9957)">
<path d="M20.2906 10.1052C23.0652 10.1052 25.3144 7.84308 25.3144 5.0526C25.3144 2.26213 23.0652 0 20.2906 0C17.5161 0 15.2668 2.26213 15.2668 5.0526C15.2668 7.84308 17.5161 10.1052 20.2906 10.1052Z" fill="#58C2AD"/>
<path d="M5.02378 10.1052C7.79834 10.1052 10.0476 7.84308 10.0476 5.0526C10.0476 2.26213 7.79834 0 5.02378 0C2.24922 0 0 2.26213 0 5.0526C0 7.84308 2.24922 10.1052 5.02378 10.1052Z" fill="#605A5A"/>
<path d="M0 12.9951H10.0476V36.3708C7.38617 36.3708 4.83349 35.3088 2.94977 33.418C1.06604 31.5271 0.00517781 28.9619 0 26.2852L0 12.9951Z" fill="#4B628B"/>
<path d="M22.9589 23.1102H21.3755C20.0548 23.1102 18.7469 22.8485 17.5267 22.3402C16.3065 21.8319 15.1978 21.0868 14.2639 20.1475C13.33 19.2083 12.5892 18.0932 12.0837 16.866C11.5783 15.6388 11.3182 14.3234 11.3182 12.9951H22.9589C24.2542 13.0526 25.4775 13.6105 26.3739 14.5527C27.2704 15.4949 27.7707 16.7486 27.7707 18.0527C27.7707 19.3567 27.2704 20.6104 26.3739 21.5526C25.4775 22.4948 24.2542 23.0527 22.9589 23.1102Z" fill="#4B628B"/>
<path d="M51.2641 36.3907V13.8604H56.6984V36.3907H51.2641Z" fill="#605A5A"/>
<path d="M77.2235 18.5002V36.3907H71.8088V18.5002H65.4949V13.8506H83.5766V18.5002H77.2235Z" fill="#605A5A"/>
<path d="M110.68 31.6034C110.242 32.6913 109.575 33.6707 108.725 34.4738C107.838 35.2914 106.798 35.923 105.666 36.3317C103.088 37.2229 100.288 37.2229 97.7096 36.3317C96.5916 35.9234 95.5675 35.2914 94.6993 34.4738C93.8703 33.6645 93.2237 32.6856 92.8031 31.6034C92.349 30.422 92.1234 29.1641 92.1385 27.8975V13.8604H97.5239V27.4454C97.5204 28.04 97.5994 28.6322 97.7585 29.2049C97.9073 29.737 98.1525 30.2369 98.4817 30.6794C98.8267 31.1232 99.2725 31.4771 99.7817 31.7116C101.034 32.2283 102.439 32.2283 103.691 31.7116C104.206 31.4775 104.658 31.1237 105.011 30.6794C105.347 30.2415 105.593 29.7401 105.734 29.2049C105.885 28.6308 105.961 28.0393 105.959 27.4454V13.8604H111.374V27.8975C111.384 29.1665 111.148 30.4252 110.68 31.6034Z" fill="#605A5A"/>
<path d="M134.049 36.3907L129.162 27.4454H127.315V36.3907H122.027V13.8604H130.569C131.631 13.8571 132.689 13.9692 133.726 14.1946C134.702 14.4016 135.633 14.7846 136.473 15.3251C137.289 15.8509 137.961 16.5741 138.428 17.4287C138.948 18.4275 139.201 19.5456 139.161 20.6726C139.205 22.0615 138.77 23.4231 137.929 24.5259C137.039 25.5985 135.846 26.3734 134.508 26.7475L140.373 36.3907H134.049ZM133.834 20.7709C133.859 20.3483 133.759 19.9276 133.547 19.562C133.335 19.1963 133.02 18.9021 132.642 18.7164C132.271 18.5263 131.871 18.4001 131.459 18.3429C131.044 18.2851 130.626 18.2555 130.208 18.2544H127.276V23.5036H129.846C130.304 23.501 130.762 23.4649 131.214 23.3955C131.656 23.3284 132.085 23.1924 132.485 22.9925C132.88 22.8121 133.218 22.5265 133.463 22.1668C133.724 21.7499 133.853 21.2632 133.834 20.7709Z" fill="#605A5A"/>
<path d="M149.365 36.3907V13.8604H154.809V36.3907H149.365Z" fill="#605A5A"/>
<path d="M180.006 36.3907L170.985 21.6457H170.887L171.014 36.3907H165.765V13.8604H171.933L180.925 28.6053H181.022L180.895 13.8604H186.144V36.3907H180.006Z" fill="#605A5A"/>
<path d="M213.159 36.4298C211.586 36.7993 209.975 36.9808 208.36 36.9704C206.669 36.9893 204.99 36.6961 203.405 36.1054C201.951 35.5753 200.621 34.7525 199.495 33.6872C198.398 32.6316 197.53 31.36 196.944 29.9518C196.322 28.4104 196.013 26.7593 196.035 25.0958C196.006 23.4108 196.322 21.7379 196.964 20.1808C197.555 18.7683 198.434 17.496 199.544 16.4454C200.659 15.403 201.972 14.5973 203.405 14.0764C204.934 13.5082 206.554 13.2251 208.184 13.2409C209.864 13.2265 211.533 13.5024 213.12 14.0568C214.495 14.5095 215.759 15.2537 216.824 16.239L213.403 20.171C212.829 19.5179 212.118 19.0008 211.321 18.6572C210.397 18.2536 209.397 18.0526 208.389 18.0674C207.489 18.0579 206.596 18.2388 205.77 18.5982C204.979 18.9344 204.266 19.4333 203.678 20.0629C203.079 20.7059 202.611 21.4606 202.3 22.2844C201.969 23.1873 201.803 24.1432 201.811 25.1056C201.801 26.077 201.949 27.0434 202.251 27.9662C202.52 28.8054 202.97 29.5742 203.57 30.2169C204.17 30.8595 204.905 31.3599 205.721 31.6819C206.656 32.0428 207.652 32.2197 208.653 32.2029C209.259 32.2054 209.864 32.1561 210.461 32.0554C211.007 31.9716 211.539 31.8163 212.045 31.5934V27.4943H207.773V23.1003H216.99V35.0339C215.772 35.6483 214.486 36.1168 213.159 36.4298Z" fill="#605A5A"/>
</g>
<defs>
<clipPath id="clip0_31649_9957">
<rect width="217" height="37" fill="white"/>
</clipPath>
</defs>
</svg>
